<svg xmlns="http://www.w3.org/2000/svg" viewBox="0 0 365.25 105.97"><defs><style>.cls-1{fill:#fff;}</style></defs><title>资源 1</title><g id="图层_2" data-name="图层 2"><g id="图层_1-2" data-name="图层 1"><path class="cls-1" d="M0,30.34C30.56-7.52,120.58-17.41,114.64,44.61c-4.94,52-75.85,77-90.94,50.94C-.81,53.24,155.82-12.54,139.91,105.63H120.16C153,6.51,26.24,41.84,34.37,81c5.18,24.88,78.08,14,77.44-38.76C111.24-4.25,51.17,3.48,25.38,30.37Z"/><path class="cls-1" d="M176.39,105.86H161.22l5.55-25.13c.47-2,3.53-12.48.53-14.86C163,62.48,148.78,61.48,141.92,67l1.21-5.54c3.56-2.22,12-7.32,26.35-7.32q8.72,0,12.54,4.69c2.55,3.17,3.11,7.86,1.7,14.14Z"/><path class="cls-1" d="M232.28,61.23a34.34,34.34,0,0,1,9.56,4.11L243.12,60a41.69,41.69,0,0,0-20.69-5.59c-10.23,0-17.62,2.74-20.39,8.83-3.6,7.93,2.51,15.23,10.27,17,8.62,2,12.51,5.41,11.73,9.54s-11.26,7.69-16.43,7.69-18.18-.29-26.88-15.83l-3.68,5s10.76,18.47,31.1,19.25c12.76.51,21.74-1.83,27.54-9.32s3.65-14.94.61-17.66c-8.28-7.45-23.47-2.75-22-12.22.67-4.35,9.84-7.4,18-5.43"/><rect class="cls-1" x="254.77" y="76.05" width="21.78" height="8.51"/><polygon class="cls-1" points="353.64 54.72 365.25 54.72 354.77 105.95 343.15 105.95 353.64 54.72"/><path class="cls-1" d="M337.05,54.75H326.79L321,82.16a49.83,49.83,0,0,1-2.66,9.51c-1.66,3.41-4.62,5.23-8.83,5.5q-7-.58-7-6.77a6.59,6.59,0,0,1,.17-1.56l7.1-34.09H299.42l-5.53,26.48a54.51,54.51,0,0,0-1.57,9.25q0,7.69,5.45,11.75,4.86,3.63,12.72,3.63,14.61,0,20.06-11.83A54.25,54.25,0,0,0,334,82.25l5.7-27.5Z"/></g></g></svg>